<svg version="1.1" xmlns="http://www.w3.org/2000/svg" xmlns:xlink="http://www.w3.org/1999/xlink" width="1144" height="650"><defs><clipPath id="QyXQgpiqNrRc"><path fill="none" stroke="none" d=" M 0 0 L 1144 0 L 1144 650 L 0 650 L 0 0 Z"/></clipPath></defs><g transform="scale(1,1)" clip-path="url(#QyXQgpiqNrRc)"><g><rect fill="rgb(255,255,255)" stroke="none" x="0" y="0" width="1144" height="650" fill-opacity="1"/><path fill="none" stroke="rgb(192,192,192)" paint-order="fill stroke markers" d=" M 42.5 0.5 L 42.5 650.5 M 42.5 0.5 L 42.5 650.5 M 133.5 0.5 L 133.5 650.5 M 224.5 0.5 L 224.5 650.5 M 406.5 0.5 L 406.5 650.5 M 497.5 0.5 L 497.5 650.5 M 588.5 0.5 L 588.5 650.5 M 679.5 0.5 L 679.5 650.5 M 770.5 0.5 L 770.5 650.5 M 860.5 0.5 L 860.5 650.5 M 951.5 0.5 L 951.5 650.5 M 1042.5 0.5 L 1042.5 650.5 M 1133.5 0.5 L 1133.5 650.5" stroke-opacity="1" stroke-linecap="round" stroke-linejoin="round" stroke-miterlimit="10"/><path fill="none" stroke="rgb(192,192,192)" paint-order="fill stroke markers" d=" M 6.5 0.5 L 6.5 650.5 M 24.5 0.5 L 24.5 650.5 M 60.5 0.5 L 60.5 650.5 M 79.5 0.5 L 79.5 650.5 M 97.5 0.5 L 97.5 650.5 M 115.5 0.5 L 115.5 650.5 M 151.5 0.5 L 151.5 650.5 M 170.5 0.5 L 170.5 650.5 M 188.5 0.5 L 188.5 650.5 M 206.5 0.5 L 206.5 650.5 M 242.5 0.5 L 242.5 650.5 M 260.5 0.5 L 260.5 650.5 M 279.5 0.5 L 279.5 650.5 M 297.5 0.5 L 297.5 650.5 M 333.5 0.5 L 333.5 650.5 M 351.5 0.5 L 351.5 650.5 M 370.5 0.5 L 370.5 650.5 M 388.5 0.5 L 388.5 650.5 M 424.5 0.5 L 424.5 650.5 M 442.5 0.5 L 442.5 650.5 M 460.5 0.5 L 460.5 650.5 M 479.5 0.5 L 479.5 650.5 M 515.5 0.5 L 515.5 650.5 M 533.5 0.5 L 533.5 650.5 M 551.5 0.5 L 551.5 650.5 M 570.5 0.5 L 570.5 650.5 M 606.5 0.5 L 606.5 650.5 M 624.5 0.5 L 624.5 650.5 M 642.5 0.5 L 642.5 650.5 M 660.5 0.5 L 660.5 650.5 M 697.5 0.5 L 697.5 650.5 M 715.5 0.5 L 715.5 650.5 M 733.5 0.5 L 733.5 650.5 M 751.5 0.5 L 751.5 650.5 M 788.5 0.5 L 788.5 650.5 M 806.5 0.5 L 806.5 650.5 M 824.5 0.5 L 824.5 650.5 M 842.5 0.5 L 842.5 650.5 M 879.5 0.5 L 879.5 650.5 M 897.5 0.5 L 897.5 650.5 M 915.5 0.5 L 915.5 650.5 M 933.5 0.5 L 933.5 650.5 M 970.5 0.5 L 970.5 650.5 M 988.5 0.5 L 988.5 650.5 M 1006.5 0.5 L 1006.5 650.5 M 1024.5 0.5 L 1024.5 650.5 M 1060.5 0.5 L 1060.5 650.5 M 1079.5 0.5 L 1079.5 650.5 M 1097.5 0.5 L 1097.5 650.5 M 1115.5 0.5 L 1115.5 650.5" stroke-opacity="0.23529411764705882" stroke-linecap="round" stroke-linejoin="round" stroke-miterlimit="10"/><path fill="none" stroke="rgb(192,192,192)" paint-order="fill stroke markers" d=" M 0.5 50.5 L 1144.5 50.5 M 0.5 50.5 L 1144.5 50.5 M 0.5 140.5 L 1144.5 140.5 M 0.5 231.5 L 1144.5 231.5 M 0.5 413.5 L 1144.5 413.5 M 0.5 504.5 L 1144.5 504.5 M 0.5 595.5 L 1144.5 595.5" stroke-opacity="1" stroke-linecap="round" stroke-linejoin="round" stroke-miterlimit="10"/><path fill="none" stroke="rgb(192,192,192)" paint-order="fill stroke markers" d=" M 0.5 13.5 L 1144.5 13.5 M 0.5 13.5 L 1144.5 13.5 M 0.5 31.5 L 1144.5 31.5 M 0.5 68.5 L 1144.5 68.5 M 0.5 86.5 L 1144.5 86.5 M 0.5 104.5 L 1144.5 104.5 M 0.5 122.5 L 1144.5 122.5 M 0.5 159.5 L 1144.5 159.5 M 0.5 177.5 L 1144.5 177.5 M 0.5 195.5 L 1144.5 195.5 M 0.5 213.5 L 1144.5 213.5 M 0.5 249.5 L 1144.5 249.5 M 0.5 268.5 L 1144.5 268.5 M 0.5 286.5 L 1144.5 286.5 M 0.5 304.5 L 1144.5 304.5 M 0.5 340.5 L 1144.5 340.5 M 0.5 359.5 L 1144.5 359.5 M 0.5 377.5 L 1144.5 377.5 M 0.5 395.5 L 1144.5 395.5 M 0.5 431.5 L 1144.5 431.5 M 0.5 449.5 L 1144.5 449.5 M 0.5 468.5 L 1144.5 468.5 M 0.5 486.5 L 1144.5 486.5 M 0.5 522.5 L 1144.5 522.5 M 0.5 540.5 L 1144.5 540.5 M 0.5 559.5 L 1144.5 559.5 M 0.5 577.5 L 1144.5 577.5 M 0.5 613.5 L 1144.5 613.5 M 0.5 631.5 L 1144.5 631.5 M 0.5 649.5 L 1144.5 649.5" stroke-opacity="0.23529411764705882" stroke-linecap="round" stroke-linejoin="round" stroke-miterlimit="10"/><path fill="none" stroke="rgb(0,0,0)" paint-order="fill stroke markers" d=" M 315.5 2.5 L 315.5 650.5" stroke-opacity="1" stroke-miterlimit="10"/><path fill="none" stroke="rgb(0,0,0)" paint-order="fill stroke markers" d=" M 315.5 1.5 L 311.5 5.5" stroke-opacity="1" stroke-miterlimit="10"/><path fill="none" stroke="rgb(0,0,0)" paint-order="fill stroke markers" d=" M 315.5 1.5 L 319.5 5.5" stroke-opacity="1" stroke-miterlimit="10"/><path fill="none" stroke="rgb(0,0,0)" paint-order="fill stroke markers" d=" M 0.5 322.5 L 1142.5 322.5" stroke-opacity="1" stroke-miterlimit="10"/><path fill="none" stroke="rgb(0,0,0)" paint-order="fill stroke markers" d=" M 1143.5 322.5 L 1139.5 318.5" stroke-opacity="1" stroke-miterlimit="10"/><path fill="none" stroke="rgb(0,0,0)" paint-order="fill stroke markers" d=" M 1143.5 322.5 L 1139.5 326.5" stroke-opacity="1" stroke-miterlimit="10"/><text fill="rgb(0,0,0)" stroke="none" font-family="geogebra-sans-serif, sans-serif" font-size="12px" font-style="normal" font-weight="normal" text-decoration="normal" x="37" y="338" text-anchor="start" dominant-baseline="alphabetic" fill-opacity="1">–6</text><text fill="none" stroke="rgb(255,255,255)" font-family="geogebra-sans-serif, sans-serif" font-size="12px" font-style="normal" font-weight="normal" text-decoration="normal" x="37" y="338" text-anchor="start" dominant-baseline="alphabetic" stroke-opacity="1" stroke-linejoin="bevel" stroke-miterlimit="10" stroke-width="3">–6</text><text fill="rgb(0,0,0)" stroke="none" font-family="geogebra-sans-serif, sans-serif" font-size="12px" font-style="normal" font-weight="normal" text-decoration="normal" x="37" y="338" text-anchor="start" dominant-baseline="alphabetic" fill-opacity="1">–6</text><text fill="rgb(0,0,0)" stroke="none" font-family="geogebra-sans-serif, sans-serif" font-size="12px" font-style="normal" font-weight="normal" text-decoration="normal" x="128" y="338" text-anchor="start" dominant-baseline="alphabetic" fill-opacity="1">–4</text><text fill="none" stroke="rgb(255,255,255)" font-family="geogebra-sans-serif, sans-serif" font-size="12px" font-style="normal" font-weight="normal" text-decoration="normal" x="128" y="338" text-anchor="start" dominant-baseline="alphabetic" stroke-opacity="1" stroke-linejoin="bevel" stroke-miterlimit="10" stroke-width="3">–4</text><text fill="rgb(0,0,0)" stroke="none" font-family="geogebra-sans-serif, sans-serif" font-size="12px" font-style="normal" font-weight="normal" text-decoration="normal" x="128" y="338" text-anchor="start" dominant-baseline="alphabetic" fill-opacity="1">–4</text><text fill="rgb(0,0,0)" stroke="none" font-family="geogebra-sans-serif, sans-serif" font-size="12px" font-style="normal" font-weight="normal" text-decoration="normal" x="219" y="338" text-anchor="start" dominant-baseline="alphabetic" fill-opacity="1">–2</text><text fill="none" stroke="rgb(255,255,255)" font-family="geogebra-sans-serif, sans-serif" font-size="12px" font-style="normal" font-weight="normal" text-decoration="normal" x="219" y="338" text-anchor="start" dominant-baseline="alphabetic" stroke-opacity="1" stroke-linejoin="bevel" stroke-miterlimit="10" stroke-width="3">–2</text><text fill="rgb(0,0,0)" stroke="none" font-family="geogebra-sans-serif, sans-serif" font-size="12px" font-style="normal" font-weight="normal" text-decoration="normal" x="219" y="338" text-anchor="start" dominant-baseline="alphabetic" fill-opacity="1">–2</text><text fill="rgb(0,0,0)" stroke="none" font-family="geogebra-sans-serif, sans-serif" font-size="12px" font-style="normal" font-weight="normal" text-decoration="normal" x="404" y="338" text-anchor="start" dominant-baseline="alphabetic" fill-opacity="1">2</text><text fill="none" stroke="rgb(255,255,255)" font-family="geogebra-sans-serif, sans-serif" font-size="12px" font-style="normal" font-weight="normal" text-decoration="normal" x="404" y="338" text-anchor="start" dominant-baseline="alphabetic" stroke-opacity="1" stroke-linejoin="bevel" stroke-miterlimit="10" stroke-width="3">2</text><text fill="rgb(0,0,0)" stroke="none" font-family="geogebra-sans-serif, sans-serif" font-size="12px" font-style="normal" font-weight="normal" text-decoration="normal" x="404" y="338" text-anchor="start" dominant-baseline="alphabetic" fill-opacity="1">2</text><text fill="rgb(0,0,0)" stroke="none" font-family="geogebra-sans-serif, sans-serif" font-size="12px" font-style="normal" font-weight="normal" text-decoration="normal" x="495" y="338" text-anchor="start" dominant-baseline="alphabetic" fill-opacity="1">4</text><text fill="none" stroke="rgb(255,255,255)" font-family="geogebra-sans-serif, sans-serif" font-size="12px" font-style="normal" font-weight="normal" text-decoration="normal" x="495" y="338" text-anchor="start" dominant-baseline="alphabetic" stroke-opacity="1" stroke-linejoin="bevel" stroke-miterlimit="10" stroke-width="3">4</text><text fill="rgb(0,0,0)" stroke="none" font-family="geogebra-sans-serif, sans-serif" font-size="12px" font-style="normal" font-weight="normal" text-decoration="normal" x="495" y="338" text-anchor="start" dominant-baseline="alphabetic" fill-opacity="1">4</text><text fill="rgb(0,0,0)" stroke="none" font-family="geogebra-sans-serif, sans-serif" font-size="12px" font-style="normal" font-weight="normal" text-decoration="normal" x="586" y="338" text-anchor="start" dominant-baseline="alphabetic" fill-opacity="1">6</text><text fill="none" stroke="rgb(255,255,255)" font-family="geogebra-sans-serif, sans-serif" font-size="12px" font-style="normal" font-weight="normal" text-decoration="normal" x="586" y="338" text-anchor="start" dominant-baseline="alphabetic" stroke-opacity="1" stroke-linejoin="bevel" stroke-miterlimit="10" stroke-width="3">6</text><text fill="rgb(0,0,0)" stroke="none" font-family="geogebra-sans-serif, sans-serif" font-size="12px" font-style="normal" font-weight="normal" text-decoration="normal" x="586" y="338" text-anchor="start" dominant-baseline="alphabetic" fill-opacity="1">6</text><text fill="rgb(0,0,0)" stroke="none" font-family="geogebra-sans-serif, sans-serif" font-size="12px" font-style="normal" font-weight="normal" text-decoration="normal" x="677" y="338" text-anchor="start" dominant-baseline="alphabetic" fill-opacity="1">8</text><text fill="none" stroke="rgb(255,255,255)" font-family="geogebra-sans-serif, sans-serif" font-size="12px" font-style="normal" font-weight="normal" text-decoration="normal" x="677" y="338" text-anchor="start" dominant-baseline="alphabetic" stroke-opacity="1" stroke-linejoin="bevel" stroke-miterlimit="10" stroke-width="3">8</text><text fill="rgb(0,0,0)" stroke="none" font-family="geogebra-sans-serif, sans-serif" font-size="12px" font-style="normal" font-weight="normal" text-decoration="normal" x="677" y="338" text-anchor="start" dominant-baseline="alphabetic" fill-opacity="1">8</text><text fill="rgb(0,0,0)" stroke="none" font-family="geogebra-sans-serif, sans-serif" font-size="12px" font-style="normal" font-weight="normal" text-decoration="normal" x="765" y="338" text-anchor="start" dominant-baseline="alphabetic" fill-opacity="1">10</text><text fill="none" stroke="rgb(255,255,255)" font-family="geogebra-sans-serif, sans-serif" font-size="12px" font-style="normal" font-weight="normal" text-decoration="normal" x="765" y="338" text-anchor="start" dominant-baseline="alphabetic" stroke-opacity="1" stroke-linejoin="bevel" stroke-miterlimit="10" stroke-width="3">10</text><text fill="rgb(0,0,0)" stroke="none" font-family="geogebra-sans-serif, sans-serif" font-size="12px" font-style="normal" font-weight="normal" text-decoration="normal" x="765" y="338" text-anchor="start" dominant-baseline="alphabetic" fill-opacity="1">10</text><text fill="rgb(0,0,0)" stroke="none" font-family="geogebra-sans-serif, sans-serif" font-size="12px" font-style="normal" font-weight="normal" text-decoration="normal" x="855" y="338" text-anchor="start" dominant-baseline="alphabetic" fill-opacity="1">12</text><text fill="none" stroke="rgb(255,255,255)" font-family="geogebra-sans-serif, sans-serif" font-size="12px" font-style="normal" font-weight="normal" text-decoration="normal" x="855" y="338" text-anchor="start" dominant-baseline="alphabetic" stroke-opacity="1" stroke-linejoin="bevel" stroke-miterlimit="10" stroke-width="3">12</text><text fill="rgb(0,0,0)" stroke="none" font-family="geogebra-sans-serif, sans-serif" font-size="12px" font-style="normal" font-weight="normal" text-decoration="normal" x="855" y="338" text-anchor="start" dominant-baseline="alphabetic" fill-opacity="1">12</text><text fill="rgb(0,0,0)" stroke="none" font-family="geogebra-sans-serif, sans-serif" font-size="12px" font-style="normal" font-weight="normal" text-decoration="normal" x="946" y="338" text-anchor="start" dominant-baseline="alphabetic" fill-opacity="1">14</text><text fill="none" stroke="rgb(255,255,255)" font-family="geogebra-sans-serif, sans-serif" font-size="12px" font-style="normal" font-weight="normal" text-decoration="normal" x="946" y="338" text-anchor="start" dominant-baseline="alphabetic" stroke-opacity="1" stroke-linejoin="bevel" stroke-miterlimit="10" stroke-width="3">14</text><text fill="rgb(0,0,0)" stroke="none" font-family="geogebra-sans-serif, sans-serif" font-size="12px" font-style="normal" font-weight="normal" text-decoration="normal" x="946" y="338" text-anchor="start" dominant-baseline="alphabetic" fill-opacity="1">14</text><text fill="rgb(0,0,0)" stroke="none" font-family="geogebra-sans-serif, sans-serif" font-size="12px" font-style="normal" font-weight="normal" text-decoration="normal" x="1037" y="338" text-anchor="start" dominant-baseline="alphabetic" fill-opacity="1">16</text><text fill="none" stroke="rgb(255,255,255)" font-family="geogebra-sans-serif, sans-serif" font-size="12px" font-style="normal" font-weight="normal" text-decoration="normal" x="1037" y="338" text-anchor="start" dominant-baseline="alphabetic" stroke-opacity="1" stroke-linejoin="bevel" stroke-miterlimit="10" stroke-width="3">16</text><text fill="rgb(0,0,0)" stroke="none" font-family="geogebra-sans-serif, sans-serif" font-size="12px" font-style="normal" font-weight="normal" text-decoration="normal" x="1037" y="338" text-anchor="start" dominant-baseline="alphabetic" fill-opacity="1">16</text><text fill="rgb(0,0,0)" stroke="none" font-family="geogebra-sans-serif, sans-serif" font-size="12px" font-style="normal" font-weight="normal" text-decoration="normal" x="1128" y="338" text-anchor="start" dominant-baseline="alphabetic" fill-opacity="1">18</text><text fill="none" stroke="rgb(255,255,255)" font-family="geogebra-sans-serif, sans-serif" font-size="12px" font-style="normal" font-weight="normal" text-decoration="normal" x="1128" y="338" text-anchor="start" dominant-baseline="alphabetic" stroke-opacity="1" stroke-linejoin="bevel" stroke-miterlimit="10" stroke-width="3">18</text><text fill="rgb(0,0,0)" stroke="none" font-family="geogebra-sans-serif, sans-serif" font-size="12px" font-style="normal" font-weight="normal" text-decoration="normal" x="1128" y="338" text-anchor="start" dominant-baseline="alphabetic" fill-opacity="1">18</text><text fill="rgb(0,0,0)" stroke="none" font-family="geogebra-sans-serif, sans-serif" font-size="12px" font-style="normal" font-weight="normal" text-decoration="normal" x="295" y="600" text-anchor="start" dominant-baseline="alphabetic" fill-opacity="1">–6</text><text fill="none" stroke="rgb(255,255,255)" font-family="geogebra-sans-serif, sans-serif" font-size="12px" font-style="normal" font-weight="normal" text-decoration="normal" x="295" y="600" text-anchor="start" dominant-baseline="alphabetic" stroke-opacity="1" stroke-linejoin="bevel" stroke-miterlimit="10" stroke-width="3">–6</text><text fill="rgb(0,0,0)" stroke="none" font-family="geogebra-sans-serif, sans-serif" font-size="12px" font-style="normal" font-weight="normal" text-decoration="normal" x="295" y="600" text-anchor="start" dominant-baseline="alphabetic" fill-opacity="1">–6</text><text fill="rgb(0,0,0)" stroke="none" font-family="geogebra-sans-serif, sans-serif" font-size="12px" font-style="normal" font-weight="normal" text-decoration="normal" x="295" y="509" text-anchor="start" dominant-baseline="alphabetic" fill-opacity="1">–4</text><text fill="none" stroke="rgb(255,255,255)" font-family="geogebra-sans-serif, sans-serif" font-size="12px" font-style="normal" font-weight="normal" text-decoration="normal" x="295" y="509" text-anchor="start" dominant-baseline="alphabetic" stroke-opacity="1" stroke-linejoin="bevel" stroke-miterlimit="10" stroke-width="3">–4</text><text fill="rgb(0,0,0)" stroke="none" font-family="geogebra-sans-serif, sans-serif" font-size="12px" font-style="normal" font-weight="normal" text-decoration="normal" x="295" y="509" text-anchor="start" dominant-baseline="alphabetic" fill-opacity="1">–4</text><text fill="rgb(0,0,0)" stroke="none" font-family="geogebra-sans-serif, sans-serif" font-size="12px" font-style="normal" font-weight="normal" text-decoration="normal" x="295" y="418" text-anchor="start" dominant-baseline="alphabetic" fill-opacity="1">–2</text><text fill="none" stroke="rgb(255,255,255)" font-family="geogebra-sans-serif, sans-serif" font-size="12px" font-style="normal" font-weight="normal" text-decoration="normal" x="295" y="418" text-anchor="start" dominant-baseline="alphabetic" stroke-opacity="1" stroke-linejoin="bevel" stroke-miterlimit="10" stroke-width="3">–2</text><text fill="rgb(0,0,0)" stroke="none" font-family="geogebra-sans-serif, sans-serif" font-size="12px" font-style="normal" font-weight="normal" text-decoration="normal" x="295" y="418" text-anchor="start" dominant-baseline="alphabetic" fill-opacity="1">–2</text><text fill="rgb(0,0,0)" stroke="none" font-family="geogebra-sans-serif, sans-serif" font-size="12px" font-style="normal" font-weight="normal" text-decoration="normal" x="301" y="236" text-anchor="start" dominant-baseline="alphabetic" fill-opacity="1">2</text><text fill="none" stroke="rgb(255,255,255)" font-family="geogebra-sans-serif, sans-serif" font-size="12px" font-style="normal" font-weight="normal" text-decoration="normal" x="301" y="236" text-anchor="start" dominant-baseline="alphabetic" stroke-opacity="1" stroke-linejoin="bevel" stroke-miterlimit="10" stroke-width="3">2</text><text fill="rgb(0,0,0)" stroke="none" font-family="geogebra-sans-serif, sans-serif" font-size="12px" font-style="normal" font-weight="normal" text-decoration="normal" x="301" y="236" text-anchor="start" dominant-baseline="alphabetic" fill-opacity="1">2</text><text fill="rgb(0,0,0)" stroke="none" font-family="geogebra-sans-serif, sans-serif" font-size="12px" font-style="normal" font-weight="normal" text-decoration="normal" x="301" y="145" text-anchor="start" dominant-baseline="alphabetic" fill-opacity="1">4</text><text fill="none" stroke="rgb(255,255,255)" font-family="geogebra-sans-serif, sans-serif" font-size="12px" font-style="normal" font-weight="normal" text-decoration="normal" x="301" y="145" text-anchor="start" dominant-baseline="alphabetic" stroke-opacity="1" stroke-linejoin="bevel" stroke-miterlimit="10" stroke-width="3">4</text><text fill="rgb(0,0,0)" stroke="none" font-family="geogebra-sans-serif, sans-serif" font-size="12px" font-style="normal" font-weight="normal" text-decoration="normal" x="301" y="145" text-anchor="start" dominant-baseline="alphabetic" fill-opacity="1">4</text><text fill="rgb(0,0,0)" stroke="none" font-family="geogebra-sans-serif, sans-serif" font-size="12px" font-style="normal" font-weight="normal" text-decoration="normal" x="301" y="55" text-anchor="start" dominant-baseline="alphabetic" fill-opacity="1">6</text><text fill="none" stroke="rgb(255,255,255)" font-family="geogebra-sans-serif, sans-serif" font-size="12px" font-style="normal" font-weight="normal" text-decoration="normal" x="301" y="55" text-anchor="start" dominant-baseline="alphabetic" stroke-opacity="1" stroke-linejoin="bevel" stroke-miterlimit="10" stroke-width="3">6</text><text fill="rgb(0,0,0)" stroke="none" font-family="geogebra-sans-serif, sans-serif" font-size="12px" font-style="normal" font-weight="normal" text-decoration="normal" x="301" y="55" text-anchor="start" dominant-baseline="alphabetic" fill-opacity="1">6</text><text fill="rgb(0,0,0)" stroke="none" font-family="geogebra-sans-serif, sans-serif" font-size="12px" font-style="normal" font-weight="normal" text-decoration="normal" x="301" y="338" text-anchor="start" dominant-baseline="alphabetic" fill-opacity="1">0</text><text fill="none" stroke="rgb(255,255,255)" font-family="geogebra-sans-serif, sans-serif" font-size="12px" font-style="normal" font-weight="normal" text-decoration="normal" x="301" y="338" text-anchor="start" dominant-baseline="alphabetic" stroke-opacity="1" stroke-linejoin="bevel" stroke-miterlimit="10" stroke-width="3">0</text><text fill="rgb(0,0,0)" stroke="none" font-family="geogebra-sans-serif, sans-serif" font-size="12px" font-style="normal" font-weight="normal" text-decoration="normal" x="301" y="338" text-anchor="start" dominant-baseline="alphabetic" fill-opacity="1">0</text><path fill="none" stroke="rgb(0,0,0)" paint-order="fill stroke markers" d=" M -379.4781762579927 2060.28634973589 C 238.32060667840454 -410.90878200969905 856.1193896148018 -410.90878200969905 1473.918172551199 2060.28634973589" stroke-opacity="0.6980392156862745" stroke-linecap="round" stroke-linejoin="round" stroke-miterlimit="10" stroke-width="2.5"/><text fill="rgb(0,0,0)" stroke="none" font-family="geogebra-sans-serif, sans-serif" font-size="16px" font-style="normal" font-weight="normal" text-decoration="normal" x="103" y="670" text-anchor="start" dominant-baseline="alphabetic" fill-opacity="1">g</text><text fill="none" stroke="rgb(255,255,255)" font-family="geogebra-sans-serif, sans-serif" font-size="16px" font-style="normal" font-weight="normal" text-decoration="normal" x="103" y="670" text-anchor="start" dominant-baseline="alphabetic" stroke-opacity="1" stroke-linejoin="bevel" stroke-miterlimit="10" stroke-width="3">g</text><text fill="rgb(0,0,0)" stroke="none" font-family="geogebra-sans-serif, sans-serif" font-size="16px" font-style="normal" font-weight="normal" text-decoration="normal" x="103" y="670" text-anchor="start" dominant-baseline="alphabetic" fill-opacity="1">g</text><path fill="none" stroke="rgb(0,0,0)" paint-order="fill stroke markers" d=" M 73.5 16.5 L 273.5 16.5" stroke-opacity="0.39215686274509803" stroke-linecap="round" stroke-linejoin="round" stroke-miterlimit="10" stroke-width="5"/><path fill="rgb(0,0,0)" stroke="none" paint-order="stroke fill markers" d=" M 148.66666666666666 16.5 C 148.66666666666666 21.19442037356174 144.8610870402284 25 140.16666666666666 25 C 135.47224629310492 25 131.66666666666666 21.19442037356174 131.66666666666666 16.5 C 131.66666666666666 11.805579626438256 135.47224629310492 8 140.16666666666666 8 C 144.8610870402284 8 148.66666666666666 11.805579626438256 148.66666666666666 16.5 Z" fill-opacity="0.39215686274509803"/><path fill="none" stroke="rgb(0,0,0)" paint-order="fill stroke markers" d=" M 148.66666666666666 16.5 C 148.66666666666666 21.19442037356174 144.8610870402284 25 140.16666666666666 25 C 135.47224629310492 25 131.66666666666666 21.19442037356174 131.66666666666666 16.5 C 131.66666666666666 11.805579626438256 135.47224629310492 8 140.16666666666666 8 C 144.8610870402284 8 148.66666666666666 11.805579626438256 148.66666666666666 16.5 Z" stroke-opacity="0.39215686274509803" stroke-linecap="round" stroke-linejoin="round" stroke-miterlimit="10"/><path fill="rgb(0,0,0)" stroke="none" paint-order="stroke fill markers" d=" M 145.66666666666666 16.5 C 145.66666666666666 19.537566124069365 143.20423279073603 22 140.16666666666666 22 C 137.12910054259729 22 134.66666666666666 19.537566124069365 134.66666666666666 16.5 C 134.66666666666666 13.462433875930637 137.12910054259729 11 140.16666666666666 11 C 143.20423279073603 11 145.66666666666666 13.462433875930637 145.66666666666666 16.5 Z" fill-opacity="1"/><path fill="none" stroke="rgb(0,0,0)" paint-order="fill stroke markers" d=" M 145.66666666666666 16.5 C 145.66666666666666 19.537566124069365 143.20423279073603 22 140.16666666666666 22 C 137.12910054259729 22 134.66666666666666 19.537566124069365 134.66666666666666 16.5 C 134.66666666666666 13.462433875930637 137.12910054259729 11 140.16666666666666 11 C 143.20423279073603 11 145.66666666666666 13.462433875930637 145.66666666666666 16.5 Z" stroke-opacity="1" stroke-linecap="round" stroke-linejoin="round" stroke-miterlimit="10"/><text fill="rgb(0,0,0)" stroke="none" font-family="geogebra-sans-serif, sans-serif" font-size="16px" font-style="normal" font-weight="normal" text-decoration="normal" x="129" y="11" text-anchor="start" dominant-baseline="alphabetic" fill-opacity="1">v0 = 10</text><text fill="none" stroke="rgb(255,255,255)" font-family="geogebra-sans-serif, sans-serif" font-size="16px" font-style="normal" font-weight="normal" text-decoration="normal" x="129" y="11" text-anchor="start" dominant-baseline="alphabetic" stroke-opacity="1" stroke-linejoin="bevel" stroke-miterlimit="10" stroke-width="3">v0 = 10</text><text fill="rgb(0,0,0)" stroke="none" font-family="geogebra-sans-serif, sans-serif" font-size="16px" font-style="normal" font-weight="normal" text-decoration="normal" x="129" y="11" text-anchor="start" dominant-baseline="alphabetic" fill-opacity="1">v0 = 10</text><path fill="none" stroke="rgb(0,100,0)" paint-order="fill stroke markers" d=" M 76.5 73.5 L 256.5 73.5" stroke-opacity="0.2" stroke-linecap="round" stroke-linejoin="round" stroke-miterlimit="10" stroke-width="5"/><path fill="rgb(0,100,0)" stroke="none" paint-order="stroke fill markers" d=" M 86.5707963267941 73.50000000000003 C 86.5707963267941 78.19442037356177 82.76521670035584 82.00000000000003 78.0707963267941 82.00000000000003 C 73.37637595323235 82.00000000000003 69.5707963267941 78.19442037356177 69.5707963267941 73.50000000000003 C 69.5707963267941 68.80557962643829 73.37637595323235 65.00000000000003 78.0707963267941 65.00000000000003 C 82.76521670035584 65.00000000000003 86.5707963267941 68.80557962643829 86.5707963267941 73.50000000000003 Z" fill-opacity="0.2"/><path fill="none" stroke="rgb(0,100,0)" paint-order="fill stroke markers" d=" M 86.5707963267941 73.50000000000003 C 86.5707963267941 78.19442037356177 82.76521670035584 82.00000000000003 78.0707963267941 82.00000000000003 C 73.37637595323235 82.00000000000003 69.5707963267941 78.19442037356177 69.5707963267941 73.50000000000003 C 69.5707963267941 68.80557962643829 73.37637595323235 65.00000000000003 78.0707963267941 65.00000000000003 C 82.76521670035584 65.00000000000003 86.5707963267941 68.80557962643829 86.5707963267941 73.50000000000003 Z" stroke-opacity="0.2" stroke-linecap="round" stroke-linejoin="round" stroke-miterlimit="10"/><path fill="rgb(0,100,0)" stroke="none" paint-order="stroke fill markers" d=" M 83.5707963267941 73.50000000000003 C 83.5707963267941 76.53756612406939 81.10836245086345 79.00000000000003 78.0707963267941 79.00000000000003 C 75.03323020272474 79.00000000000003 72.5707963267941 76.53756612406939 72.5707963267941 73.50000000000003 C 72.5707963267941 70.46243387593067 75.03323020272474 68.00000000000003 78.0707963267941 68.00000000000003 C 81.10836245086345 68.00000000000003 83.5707963267941 70.46243387593067 83.5707963267941 73.50000000000003 Z" fill-opacity="1"/><path fill="none" stroke="rgb(0,0,0)" paint-order="fill stroke markers" d=" M 83.5707963267941 73.50000000000003 C 83.5707963267941 76.53756612406939 81.10836245086345 79.00000000000003 78.0707963267941 79.00000000000003 C 75.03323020272474 79.00000000000003 72.5707963267941 76.53756612406939 72.5707963267941 73.50000000000003 C 72.5707963267941 70.46243387593067 75.03323020272474 68.00000000000003 78.0707963267941 68.00000000000003 C 81.10836245086345 68.00000000000003 83.5707963267941 70.46243387593067 83.5707963267941 73.50000000000003 Z" stroke-opacity="1" stroke-linecap="round" stroke-linejoin="round" stroke-miterlimit="10"/><text fill="rgb(0,100,0)" stroke="none" font-family="geogebra-sans-serif, sans-serif" font-size="16px" font-style="normal" font-weight="normal" text-decoration="normal" x="67" y="58" text-anchor="start" dominant-baseline="alphabetic" fill-opacity="1">α = 45°</text><text fill="none" stroke="rgb(255,255,255)" font-family="geogebra-sans-serif, sans-serif" font-size="16px" font-style="normal" font-weight="normal" text-decoration="normal" x="67" y="58" text-anchor="start" dominant-baseline="alphabetic" stroke-opacity="1" stroke-linejoin="bevel" stroke-miterlimit="10" stroke-width="3">α = 45°</text><text fill="rgb(0,100,0)" stroke="none" font-family="geogebra-sans-serif, sans-serif" font-size="16px" font-style="normal" font-weight="normal" text-decoration="normal" x="67" y="58" text-anchor="start" dominant-baseline="alphabetic" fill-opacity="1">α = 45°</text></g></g></svg>